<svg width="25" height="29" viewBox="0 0 25 29" fill="none" xmlns="http://www.w3.org/2000/svg">
<path opacity="0.6" d="M12.375 11C12.7646 11 13.0911 10.8682 13.3547 10.6047C13.6182 10.3411 13.75 10.0146 13.75 9.625C13.75 9.23542 13.6182 8.90885 13.3547 8.64531C13.0911 8.38177 12.7646 8.25 12.375 8.25C11.9854 8.25 11.6589 8.38177 11.3953 8.64531C11.1318 8.90885 11 9.23542 11 9.625C11 10.0146 11.1318 10.3411 11.3953 10.6047C11.6589 10.8682 11.9854 11 12.375 11ZM12.375 19.25C11.4813 19.25 10.6734 19.0036 9.95156 18.5109C9.22969 18.0182 8.70833 17.3708 8.3875 16.5688C8.27292 16.5688 8.16979 16.5745 8.07813 16.5859C7.98646 16.5974 7.88333 16.6031 7.76875 16.6031C6.57708 16.6031 5.55729 16.1792 4.70938 15.3313C3.86146 14.4833 3.4375 13.4635 3.4375 12.2719C3.4375 11.7906 3.51771 11.3266 3.67813 10.8797C3.83854 10.4328 4.07917 10.0146 4.4 9.625C4.10208 9.23542 3.87292 8.81719 3.7125 8.37031C3.55208 7.92344 3.47188 7.45938 3.47188 6.97813C3.47188 5.78646 3.8901 4.76667 4.72656 3.91875C5.56302 3.07083 6.57708 2.64688 7.76875 2.64688C7.88333 2.64688 7.98646 2.6526 8.07813 2.66406C8.16979 2.67552 8.27292 2.68125 8.3875 2.68125C8.70833 1.87917 9.22969 1.23177 9.95156 0.739063C10.6734 0.246354 11.4813 0 12.375 0C13.2688 0 14.0766 0.246354 14.7984 0.739063C15.5203 1.23177 16.0417 1.87917 16.3625 2.68125C16.4771 2.68125 16.5802 2.67552 16.6719 2.66406C16.7635 2.6526 16.8667 2.64688 16.9813 2.64688C18.1729 2.64688 19.187 3.07083 20.0234 3.91875C20.8599 4.76667 21.2781 5.78646 21.2781 6.97813C21.2781 7.45938 21.2036 7.92344 21.0547 8.37031C20.9057 8.81719 20.6708 9.23542 20.35 9.625C20.6479 10.0146 20.8771 10.4328 21.0375 10.8797C21.1979 11.3266 21.2781 11.7906 21.2781 12.2719C21.2781 13.4635 20.8599 14.4833 20.0234 15.3313C19.187 16.1792 18.1729 16.6031 16.9813 16.6031C16.8667 16.6031 16.7635 16.5974 16.6719 16.5859C16.5802 16.5745 16.4771 16.5688 16.3625 16.5688C16.0417 17.3708 15.5203 18.0182 14.7984 18.5109C14.0766 19.0036 13.2688 19.25 12.375 19.25ZM12.375 28.875C12.375 27.1792 12.7016 25.5807 13.3547 24.0797C14.0078 22.5786 14.8958 21.2667 16.0188 20.1438C17.1417 19.0208 18.4536 18.1328 19.9547 17.4797C21.4557 16.8266 23.0542 16.5 24.75 16.5C24.75 18.1958 24.4234 19.7943 23.7703 21.2953C23.1172 22.7964 22.2292 24.1083 21.1063 25.2313C19.9833 26.3542 18.6714 27.2422 17.1703 27.8953C15.6693 28.5484 14.0708 28.875 12.375 28.875ZM15.7438 25.5063C17.05 25.025 18.1958 24.2917 19.1813 23.3063C20.1667 22.3208 20.9 21.175 21.3813 19.8688C20.075 20.35 18.9292 21.0833 17.9438 22.0688C16.9583 23.0542 16.225 24.2 15.7438 25.5063ZM12.375 28.875C12.375 27.1792 12.0484 25.5807 11.3953 24.0797C10.7422 22.5786 9.85417 21.2667 8.73125 20.1438C7.60833 19.0208 6.29635 18.1328 4.79531 17.4797C3.29427 16.8266 1.69583 16.5 0 16.5C0 18.1958 0.326563 19.7943 0.979688 21.2953C1.63281 22.7964 2.52083 24.1083 3.64375 25.2313C4.76667 26.3542 6.07865 27.2422 7.57969 27.8953C9.08073 28.5484 10.6792 28.875 12.375 28.875ZM9.00625 25.5063C7.7 25.025 6.55417 24.2917 5.56875 23.3063C4.58333 22.3208 3.85 21.175 3.36875 19.8688C4.675 20.35 5.82083 21.0833 6.80625 22.0688C7.79167 23.0542 8.525 24.2 9.00625 25.5063ZM16.9813 13.8531C17.4167 13.8531 17.7891 13.6984 18.0984 13.3891C18.4078 13.0797 18.5625 12.7073 18.5625 12.2719C18.5625 11.951 18.4766 11.6703 18.3047 11.4297C18.1328 11.1891 17.9094 11 17.6344 10.8625L16.4313 10.2781C16.3854 10.5302 16.3167 10.7766 16.225 11.0172C16.1333 11.2578 16.0302 11.4813 15.9156 11.6875C15.801 11.8938 15.6635 12.0885 15.5031 12.2719C15.3427 12.4552 15.1708 12.6271 14.9875 12.7875L16.0875 13.5781C16.2021 13.6698 16.3339 13.7385 16.4828 13.7844C16.6318 13.8302 16.7979 13.8531 16.9813 13.8531ZM16.4313 8.97188L17.6344 8.3875C17.9094 8.25 18.1271 8.05521 18.2875 7.80313C18.4479 7.55104 18.5281 7.27604 18.5281 6.97813C18.5281 6.54271 18.3792 6.17031 18.0813 5.86094C17.7833 5.55156 17.4167 5.39688 16.9813 5.39688C16.7979 5.39688 16.6375 5.41979 16.5 5.46563C16.3625 5.51146 16.225 5.58021 16.0875 5.67188L14.9531 6.4625C15.1365 6.62292 15.3141 6.79479 15.4859 6.97813C15.6578 7.16146 15.801 7.35625 15.9156 7.5625C16.0302 7.76875 16.1333 7.99219 16.225 8.23281C16.3167 8.47344 16.3854 8.71979 16.4313 8.97188ZM10.9656 5.775C11.1948 5.68333 11.424 5.61458 11.6531 5.56875C11.8823 5.52292 12.1229 5.5 12.375 5.5C12.6271 5.5 12.8677 5.52292 13.0969 5.56875C13.326 5.61458 13.5552 5.68333 13.7844 5.775L13.9563 4.2625C14.0021 3.85 13.8589 3.49479 13.5266 3.19688C13.1943 2.89896 12.8104 2.75 12.375 2.75C11.9396 2.75 11.5557 2.89896 11.2234 3.19688C10.8911 3.49479 10.7479 3.85 10.7938 4.2625L10.9656 5.775ZM12.375 16.5C12.8104 16.5 13.1943 16.351 13.5266 16.0531C13.8589 15.7552 14.0021 15.4 13.9563 14.9875L13.7844 13.475C13.5552 13.5667 13.326 13.6354 13.0969 13.6813C12.8677 13.7271 12.6271 13.75 12.375 13.75C12.1229 13.75 11.8823 13.7271 11.6531 13.6813C11.424 13.6354 11.1948 13.5667 10.9656 13.475L10.7938 14.9875C10.7479 15.4 10.8911 15.7552 11.2234 16.0531C11.5557 16.351 11.9396 16.5 12.375 16.5ZM8.31875 8.97188C8.36458 8.71979 8.43333 8.47344 8.525 8.23281C8.61667 7.99219 8.71979 7.76875 8.83438 7.5625C8.94896 7.35625 9.08646 7.16146 9.24688 6.97813C9.40729 6.79479 9.57917 6.62292 9.7625 6.4625L8.6625 5.67188C8.54792 5.58021 8.41615 5.51146 8.26719 5.46563C8.11823 5.41979 7.95208 5.39688 7.76875 5.39688C7.33333 5.39688 6.96094 5.55156 6.65156 5.86094C6.34219 6.17031 6.1875 6.54271 6.1875 6.97813C6.1875 7.27604 6.27344 7.55104 6.44531 7.80313C6.61719 8.05521 6.84063 8.25 7.11563 8.3875L8.31875 8.97188ZM7.76875 13.8188C7.95208 13.8188 8.1125 13.8016 8.25 13.7672C8.3875 13.7328 8.525 13.6583 8.6625 13.5438L9.79688 12.7875C9.61354 12.6271 9.43594 12.4552 9.26406 12.2719C9.09219 12.0885 8.94896 11.8938 8.83438 11.6875C8.71979 11.4813 8.61667 11.2578 8.525 11.0172C8.43333 10.7766 8.36458 10.5302 8.31875 10.2781L7.11563 10.8625C6.84063 11 6.62292 11.1948 6.4625 11.4469C6.30208 11.699 6.22188 11.974 6.22188 12.2719C6.24479 12.7073 6.39948 13.074 6.68594 13.3719C6.9724 13.6698 7.33333 13.8188 7.76875 13.8188Z" fill="#544541"/>
</svg>
